<?xml version="1.0" standalone="no"?>
<!DOCTYPE svg PUBLIC "-//W3C//DTD SVG 20010904//EN"
 "http://www.w3.org/TR/2001/REC-SVG-20010904/DTD/svg10.dtd">
<svg version="1.0" xmlns="http://www.w3.org/2000/svg"
 width="225.000000pt" height="225.000000pt" viewBox="0 0 225.000000 225.000000"
 preserveAspectRatio="xMidYMid meet">
<metadata>
Created by potrace 1.15, written by Peter Selinger 2001-2017
</metadata>
<g transform="translate(0.000000,225.000000) scale(0.100000,-0.100000)"
fill="#000000" stroke="none">
<path d="M730 1498 c-41 -28 -76 -77 -90 -127 -16 -56 -23 -145 -16 -186 l7
-38 23 49 c74 157 220 148 289 -16 l14 -35 8 55 c13 105 -33 246 -96 292 -42
32 -98 34 -139 6z"/>
<path d="M1403 1504 c-81 -40 -136 -184 -118 -308 l7 -47 23 49 c56 122 164
147 243 57 21 -24 43 -59 49 -77 l10 -33 8 50 c10 60 -7 170 -34 223 -23 45
-56 77 -94 91 -38 15 -56 14 -94 -5z"/>
<path d="M2235 1123 c-3 -38 -9 -88 -12 -113 -4 -25 -6 -48 -5 -52 1 -4 -7
-28 -18 -53 -11 -26 -20 -58 -20 -71 0 -13 -5 -24 -11 -24 -6 0 -9 -7 -6 -15
4 -8 2 -17 -3 -20 -13 -8 -50 -90 -50 -109 0 -9 -7 -16 -15 -16 -8 0 -15 -6
-15 -14 0 -7 -7 -19 -16 -27 -8 -7 -13 -21 -10 -32 3 -13 0 -17 -9 -13 -10 3
-12 0 -8 -11 4 -11 2 -14 -5 -9 -7 4 -12 3 -12 -2 0 -5 -14 -24 -31 -43 -57
-63 -69 -77 -69 -81 0 -8 -79 -88 -87 -88 -12 -1 -73 -58 -73 -69 0 -5 -16
-15 -35 -21 -19 -6 -35 -16 -35 -21 0 -5 -11 -11 -25 -15 -13 -3 -29 -12 -36
-20 -6 -8 -20 -14 -30 -14 -9 0 -25 -7 -34 -16 -8 -9 -22 -14 -30 -11 -7 3
-15 1 -17 -5 -2 -5 -35 -21 -73 -33 -39 -13 -64 -24 -56 -24 8 -1 12 -4 8 -7
-3 -3 -13 -2 -23 4 -19 10 -103 -6 -85 -17 6 -4 -68 -7 -163 -7 -101 1 -172 5
-169 10 3 5 -6 7 -21 4 -18 -4 -29 -1 -33 8 -3 8 -19 14 -37 14 -38 1 -122 29
-156 53 -13 9 -39 20 -57 23 -18 3 -36 10 -39 15 -2 5 -25 17 -49 28 -25 11
-45 25 -45 30 0 6 -9 11 -19 11 -12 0 -21 9 -25 26 -5 17 -12 24 -21 20 -9 -3
-15 1 -15 9 0 8 -5 15 -10 15 -16 0 -142 130 -175 180 -37 56 -51 71 -59 63
-3 -4 -6 2 -6 11 0 18 -29 76 -42 87 -16 11 -89 194 -85 211 3 9 1 18 -3 20
-11 4 -26 67 -44 188 l-15 95 5 -98 c15 -316 150 -597 382 -797 389 -336 932
-370 1367 -85 82 53 251 225 307 310 113 175 169 352 184 578 8 117 -1 148
-11 40z"/>
<path d="M376 944 c-23 -23 -19 -68 13 -161 66 -189 202 -351 367 -436 453
-233 999 5 1120 488 18 69 14 109 -12 119 -8 3 -59 -5 -112 -18 -306 -77 -571
-101 -823 -76 -131 13 -305 44 -431 75 -115 30 -103 29 -122 9z m1440 -147
c-14 -45 -30 -88 -35 -96 -19 -29 -298 -82 -536 -101 -183 -15 -441 10 -689
67 -77 17 -79 19 -96 58 -23 54 -52 156 -46 162 2 3 69 -9 148 -26 402 -86
707 -88 1098 -6 63 14 129 28 145 33 17 5 31 5 34 0 1 -5 -9 -46 -23 -91z
m-1206 -202 c291 -61 607 -68 905 -21 88 15 168 29 177 32 52 16 -14 -63 -110
-134 -227 -168 -551 -194 -806 -66 -94 48 -212 140 -237 187 -12 21 -17 20 71
2z"/>
</g>
</svg>
