<?xml version="1.0" standalone="no"?>
<!DOCTYPE svg PUBLIC "-//W3C//DTD SVG 20010904//EN"
 "http://www.w3.org/TR/2001/REC-SVG-20010904/DTD/svg10.dtd">
<svg version="1.0" xmlns="http://www.w3.org/2000/svg"
 width="315.000000pt" height="160.000000pt" viewBox="0 0 315.000000 160.000000"
 preserveAspectRatio="xMidYMid meet">
<metadata>
Created by potrace 1.15, written by Peter Selinger 2001-2017
</metadata>
<g transform="translate(0.000000,160.000000) scale(0.100000,-0.100000)"
fill="#000000" stroke="none">
<path d="M2925 1551 c-6 -5 -35 -11 -65 -14 -131 -13 -160 -19 -160 -36 0 -12
-2 -13 -9 -3 -6 10 -29 9 -121 -7 -118 -21 -133 -27 -110 -41 8 -5 11 -12 6
-17 -4 -4 -12 0 -17 9 -8 14 -21 17 -67 14 -32 -3 -58 -9 -60 -16 -3 -7 -13
-21 -23 -31 -11 -11 -19 -20 -19 -22 0 -4 260 41 275 47 5 3 -1 5 -15 6 -23 1
-23 2 -6 11 13 8 24 8 40 -1 18 -9 51 -6 166 14 79 14 147 26 151 26 4 0 9 -9
12 -20 4 -15 -1 -21 -16 -25 -33 -7 -128 -25 -162 -30 -16 -2 -102 -17 -189
-32 -128 -23 -160 -31 -164 -45 -2 -10 -8 -15 -13 -12 -5 3 -7 10 -3 15 14 23
-92 -4 -127 -32 -62 -48 -67 -58 -41 -79 12 -10 22 -23 22 -30 0 -7 -6 -5 -16
4 -8 9 -22 16 -29 16 -8 0 -12 6 -9 14 4 10 -6 21 -28 32 -20 10 -28 19 -20
22 8 2 19 -1 25 -7 19 -19 45 -12 67 19 13 18 16 28 8 26 -7 -2 -48 -10 -90
-16 -64 -11 -78 -16 -78 -31 0 -10 -4 -21 -10 -24 -5 -3 -10 3 -10 14 0 26 -1
26 -125 1 -55 -11 -116 -22 -135 -25 -19 -2 -141 -23 -270 -46 -389 -68 -560
-98 -667 -116 -81 -13 -104 -21 -109 -35 -3 -10 -10 -18 -15 -18 -6 0 -7 5 -4
10 3 5 -1 10 -9 10 -8 0 -18 -5 -22 -11 -5 -8 -8 -8 -14 0 -5 9 -41 6 -138
-11 -79 -13 -127 -25 -119 -30 7 -5 1 -6 -13 -3 -14 3 -77 -3 -140 -15 -90
-16 -115 -17 -122 -8 -15 25 0 33 91 48 l92 15 -26 26 c-25 25 -27 25 -88 13
-34 -6 -79 -15 -100 -19 -37 -6 -39 -8 -34 -38 58 -352 94 -531 110 -547 21
-24 22 -34 1 -26 -11 4 -14 1 -10 -12 3 -9 15 -74 27 -144 12 -71 27 -128 33
-128 36 0 362 63 364 71 2 5 8 7 12 4 5 -3 16 5 24 17 9 12 19 19 22 15 4 -4
1 -14 -7 -23 -13 -16 -12 -17 11 -11 14 3 109 20 212 38 l187 33 -31 19 c-17
10 -38 19 -47 19 -34 3 -281 -45 -281 -54 0 -5 -5 -6 -11 -3 -18 11 -171 -17
-176 -33 -4 -8 -8 -10 -12 -4 -5 9 -165 -9 -212 -23 -11 -4 -18 1 -22 15 -3
11 -2 22 1 24 4 2 90 18 192 36 102 17 192 34 200 37 8 3 26 6 40 8 98 8 131
18 151 47 24 33 37 31 19 -3 -11 -20 -10 -21 11 -16 13 4 32 7 42 7 11 0 15 4
11 12 -5 8 -2 9 11 5 23 -9 121 3 105 13 -9 6 -9 9 -1 15 7 4 18 2 25 -5 19
-15 146 7 164 28 8 11 12 12 12 3 0 -12 53 -8 90 6 8 4 26 7 40 8 91 6 143 18
147 36 6 22 33 26 33 5 0 -10 9 -11 43 -5 23 5 175 32 337 59 162 28 383 66
490 85 107 20 249 44 315 56 66 11 140 24 164 30 90 21 138 22 145 3 4 -9 5
-18 4 -20 -2 -1 -37 -9 -78 -17 -60 -11 -74 -17 -72 -30 3 -18 -23 -24 -33 -7
-3 6 -1 10 6 10 7 0 10 3 6 6 -11 11 -46 -7 -40 -22 7 -18 -6 -18 -21 0 -8 9
-23 12 -51 8 l-40 -6 39 -6 c22 -3 41 -11 42 -18 1 -7 0 -8 -2 -3 -3 6 -28 8
-57 5 -38 -4 -48 -3 -37 5 20 14 7 14 -88 -3 -47 -8 -77 -19 -86 -31 -12 -16
-13 -17 -19 -1 -5 12 -11 14 -24 8 -10 -5 -24 -7 -30 -5 -7 3 -13 1 -13 -4 0
-5 -15 -9 -32 -9 -18 0 -51 -3 -73 -7 -22 -4 -128 -23 -235 -42 -107 -19 -208
-38 -225 -43 -16 -5 -36 -7 -42 -5 -9 3 -13 -6 -13 -25 0 -25 4 -29 23 -26
120 18 334 58 341 64 5 5 14 6 21 4 10 -4 437 67 575 95 25 6 67 13 94 16 31
4 45 10 36 15 -19 12 25 23 47 12 11 -6 41 -6 81 1 56 9 62 12 62 33 0 16 -6
24 -17 24 -14 0 -15 2 -5 9 12 7 10 30 -8 137 -27 162 -26 160 -45 144 -12
-10 -15 -9 -15 4 0 9 7 16 16 16 12 0 14 7 10 28 -3 15 -11 57 -17 95 -9 55
-14 67 -30 67 -10 0 -19 -4 -19 -10 0 -5 -5 -10 -12 -10 -6 0 -20 -7 -30 -17
-10 -9 -21 -13 -25 -10 -8 8 40 54 53 50 5 -1 17 4 28 12 18 13 17 19 -10 174
-16 89 -31 161 -34 161 -4 0 -10 -4 -15 -9z m-21 -209 c3 -25 3 -49 -1 -53 -5
-4 -69 -17 -143 -29 -74 -12 -148 -28 -164 -36 -33 -16 -39 -17 -32 -6 2 4
-13 6 -33 4 -37 -4 -38 -3 -44 35 -4 21 -7 43 -7 49 0 6 70 23 168 39 92 16
170 31 175 35 4 3 22 6 41 7 33 1 34 0 40 -45z m-464 -65 c0 -12 13 -96 30
-187 16 -91 32 -180 35 -199 6 -31 7 -32 20 -15 8 11 15 14 15 8 0 -6 -6 -17
-13 -23 -11 -8 -12 -24 -4 -71 5 -33 13 -57 17 -55 4 3 10 -1 13 -8 3 -8 -8
-12 -37 -12 -22 0 -57 -4 -77 -8 l-36 -7 -7 42 c-19 120 -39 218 -45 218 -4 0
1 -42 11 -92 10 -51 17 -100 16 -108 -2 -8 -46 45 -99 117 l-97 130 -15 93
c-9 52 -15 96 -13 98 2 2 35 -40 72 -92 39 -54 76 -95 86 -96 9 0 18 -6 21
-12 2 -7 8 -10 11 -6 4 3 -4 69 -18 145 -14 76 -22 141 -18 145 9 8 114 26
125 21 4 -2 7 -14 7 -26z m-310 -34 c0 -5 16 -96 35 -203 20 -107 40 -222 46
-255 5 -33 12 -72 15 -86 6 -29 -8 -36 -88 -45 -33 -4 -38 -2 -38 16 0 31 -13
24 -50 -25 -36 -48 -42 -53 -38 -32 3 14 -86 11 -115 -5 -10 -5 -21 -7 -24 -4
-8 7 -24 98 -19 104 5 5 144 32 163 32 7 0 16 -19 19 -42 6 -34 9 -38 15 -21
4 12 12 24 18 28 6 3 11 11 11 16 0 6 -4 7 -10 4 -5 -3 -10 -2 -10 4 0 5 5 11
12 13 13 5 -19 218 -33 218 -5 0 -6 6 -3 14 3 8 -4 67 -16 132 -11 64 -17 121
-13 125 7 7 44 13 101 17 12 1 22 -1 22 -5z m660 -83 c7 -44 16 -80 21 -80 5
0 6 -6 3 -14 -5 -12 28 -220 42 -267 5 -18 -7 -23 -88 -34 -41 -6 -47 -5 -53
14 -3 12 -14 21 -23 21 -16 1 -16 1 -1 10 15 9 15 17 4 77 -7 38 -15 85 -19
106 -4 23 -13 37 -21 37 -8 0 -15 7 -15 16 0 11 5 14 16 10 11 -4 14 -1 10 12
-13 45 -28 143 -22 149 7 7 70 20 107 22 26 1 27 -2 39 -79z m-837 12 c5 -24
6 -46 4 -48 -3 -3 -34 -10 -71 -16 -36 -6 -66 -15 -66 -19 0 -5 -11 -9 -25 -9
-14 0 -25 -4 -25 -8 0 -4 12 -71 26 -148 14 -76 27 -152 30 -169 2 -16 9 -56
15 -89 5 -32 9 -59 7 -61 -7 -5 -130 -26 -134 -23 -2 2 -11 52 -21 111 -10 60
-22 106 -28 104 -5 -2 -17 -26 -26 -53 -15 -48 -15 -49 4 -54 26 -7 34 -28 10
-26 -16 1 -18 -6 -15 -51 l3 -53 -45 0 c-34 0 -46 4 -49 18 -4 13 -5 11 -6 -6
0 -12 -4 -21 -8 -20 -5 1 -23 -6 -40 -15 -18 -10 -33 -14 -33 -10 0 4 -6 -1
-13 -11 -11 -15 -13 -9 -12 41 0 49 3 60 22 71 27 15 35 45 25 92 -6 27 -13
36 -33 38 -28 3 -49 -28 -49 -73 0 -14 -4 -25 -10 -25 -13 0 -12 6 1 54 11 41
1 60 -28 49 -7 -3 -13 0 -13 7 0 8 10 9 30 5 19 -4 30 -3 30 4 0 6 -4 11 -9
11 -5 0 -12 19 -16 43 -4 23 -12 48 -17 55 -7 8 -7 12 1 12 6 0 11 -4 11 -10
0 -19 39 -10 51 11 12 24 5 95 -13 116 -6 7 -21 13 -34 13 -13 0 -24 3 -24 8
-1 4 -5 26 -9 49 l-8 42 37 6 c82 14 159 -31 182 -107 7 -26 15 -35 25 -31 12
5 14 1 9 -15 -3 -12 -8 -30 -10 -39 -3 -10 3 -58 13 -108 17 -89 18 -89 28
-55 6 19 17 49 23 65 10 25 7 54 -14 170 -14 76 -23 141 -20 145 7 7 284 58
309 56 15 -1 22 -12 28 -44z m-619 -93 c6 -35 3 -45 -15 -62 -25 -23 -24 -38
10 -232 27 -153 27 -152 60 -163 24 -8 30 -18 36 -52 4 -23 4 -44 1 -47 -12
-12 -83 -11 -121 3 -22 7 -48 23 -57 34 -10 12 -22 18 -29 14 -8 -4 -9 -3 -5
5 4 6 0 46 -8 89 -40 195 -55 311 -45 345 14 52 84 106 140 107 23 0 27 -5 33
-41z m-234 -18 c0 -9 -3 -12 -8 -6 -13 19 -37 11 -36 -13 0 -12 -4 -22 -9 -22
-6 0 -1 -10 11 -23 12 -13 27 -37 33 -54 6 -19 16 -30 23 -27 15 6 29 -23 20
-38 -5 -7 -12 -4 -21 7 -12 17 -13 15 -13 -21 0 -22 -7 -49 -15 -60 -8 -10
-14 -26 -14 -34 -1 -10 6 -6 19 10 l20 25 1 -25 c1 -14 1 -29 0 -34 -1 -4 3
-14 9 -21 6 -7 19 -58 30 -113 11 -56 21 -107 22 -113 2 -7 -6 -14 -17 -16
-95 -18 -124 -26 -120 -34 4 -5 0 -9 -7 -9 -13 0 -42 50 -33 58 2 3 12 -1 22
-9 15 -12 16 -12 11 2 -4 9 -10 38 -14 64 -6 45 -8 47 -22 29 -14 -19 -15 -19
-7 1 18 47 17 73 -5 95 -18 18 -28 20 -60 15 -38 -6 -39 -6 -45 28 -10 53 -3
70 31 78 17 3 36 9 42 13 13 8 15 47 6 83 -7 26 -41 40 -57 24 -14 -14 -30
-14 -22 -1 3 6 -3 10 -14 10 -20 0 -24 8 -36 68 -6 30 -5 32 23 32 16 0 32 3
36 7 9 9 92 4 123 -8 17 -6 22 -6 18 2 -4 5 0 18 9 28 21 23 66 25 66 2z
m-298 -54 c4 -7 8 -21 8 -32 1 -41 13 -64 39 -74 26 -10 26 -10 4 -16 -28 -9
-28 -3 2 -165 15 -84 31 -140 42 -152 13 -15 14 -21 4 -27 -9 -6 -11 -21 -6
-53 8 -55 1 -61 -75 -65 l-55 -3 -23 127 c-13 71 -25 142 -27 158 -3 17 -14
80 -25 142 -27 153 -28 150 20 158 24 4 38 11 34 17 -5 7 3 9 22 4 16 -4 32
-13 36 -19z m1182 -65 c5 -23 7 -45 4 -47 -9 -9 -160 -35 -169 -29 -5 3 -9 25
-9 49 0 38 3 45 23 49 141 31 140 31 151 -22z m-1370 -54 c10 -51 20 -109 23
-128 3 -19 13 -41 22 -48 12 -10 13 -15 3 -21 -9 -5 -10 -20 -2 -61 26 -137 4
-205 -80 -248 -59 -29 -73 -28 -87 9 -14 35 -8 58 20 78 16 11 18 22 14 60 -4
41 -64 393 -70 415 -2 4 -18 -7 -37 -25 -19 -19 -44 -35 -55 -37 -20 -2 -20
-2 -1 12 11 9 31 26 46 40 26 23 95 42 161 45 26 1 27 -2 43 -91z m-334 51
c-12 -8 -9 -9 11 -5 26 6 27 5 44 -82 10 -48 22 -120 27 -159 6 -40 13 -73 17
-73 4 0 17 13 29 29 11 16 36 39 54 52 l33 22 -27 -29 c-15 -16 -40 -49 -56
-72 -26 -39 -28 -49 -21 -88 10 -51 30 -95 36 -77 8 24 41 -21 48 -66 l7 -43
-66 4 c-101 6 -145 49 -168 164 -6 32 -16 62 -22 66 -8 6 -8 8 0 8 7 0 7 19
-2 63 -8 34 -14 73 -14 87 0 14 -3 20 -8 14 -4 -7 -8 16 -10 50 -1 33 -3 72
-5 86 -2 22 3 25 31 28 18 2 36 10 39 18 3 8 13 14 22 14 14 0 14 -2 1 -11z"/>
<path d="M2167 1422 c-83 -14 -98 -24 -52 -35 13 -3 9 -5 -12 -6 -17 0 -35 4
-39 10 -6 10 -26 9 -105 -7 -20 -4 -28 -12 -31 -35 -4 -29 13 -41 27 -19 3 6
22 10 42 10 48 0 163 20 163 29 0 3 17 6 37 6 34 0 38 3 35 23 -2 12 2 22 7
22 6 0 11 -7 11 -15 0 -13 3 -13 20 -3 25 16 26 38 3 37 -10 -1 -58 -8 -106
-17z"/>
<path d="M1775 1353 c-71 -14 -154 -29 -184 -35 -39 -7 -55 -15 -58 -29 -3
-10 -10 -19 -15 -19 -5 0 -7 8 -3 19 4 15 1 18 -19 14 -14 -3 -31 -11 -37 -19
-6 -8 -17 -14 -23 -14 -6 0 -4 5 4 10 22 14 -10 13 -103 -5 -43 -8 -81 -15
-83 -15 -2 0 -4 -6 -4 -14 0 -8 -4 -17 -9 -20 -5 -4 -7 4 -3 16 4 17 2 20 -12
15 -10 -4 -43 -10 -74 -14 -39 -4 -63 -13 -79 -29 -16 -16 -23 -19 -23 -9 0 9
-10 15 -24 15 -34 0 -56 -10 -56 -26 0 -14 -38 -39 -47 -31 -2 3 5 10 16 17
25 13 28 33 4 26 -10 -2 -50 -10 -90 -16 -56 -9 -74 -16 -78 -31 -4 -10 -10
-19 -15 -19 -5 0 -7 7 -3 16 5 14 -1 15 -48 9 -30 -4 -59 -11 -65 -16 -6 -5
-13 -6 -16 -4 -8 8 -290 -44 -305 -57 -7 -5 -21 -7 -30 -4 -13 5 -11 -1 7 -19
25 -24 28 -25 85 -14 33 6 64 13 68 16 5 3 27 6 50 8 64 4 157 25 157 36 0 5
5 9 11 9 5 0 7 -5 3 -11 -4 -8 3 -9 22 -5 16 3 105 20 199 37 93 17 174 34
180 37 5 4 17 5 26 4 9 -2 117 15 240 37 123 21 244 42 269 46 25 4 50 10 55
13 6 4 26 8 45 9 102 6 241 40 180 44 l-25 1 25 7 c22 6 43 42 23 40 -4 -1
-66 -12 -138 -26z"/>
<path d="M1745 484 c-10 -4 -192 -37 -270 -49 -16 -2 -46 -7 -65 -11 -55 -10
-69 -12 -170 -29 -139 -23 -147 -25 -129 -36 9 -5 9 -9 2 -9 -6 0 -14 4 -18 9
-6 10 -75 3 -88 -9 -4 -4 10 -15 32 -24 36 -17 44 -17 122 -2 110 21 411 73
472 82 29 4 56 15 68 27 10 11 31 29 46 39 25 16 24 23 -2 12z"/>
</g>
</svg>
